{"title":"Avril Lavigne - Complicated Live at JSTV 2012","uid":7001260,"size":611320540,"categoryP":"video","categoryS":"other","magnet":"?xt=urn:btih:cc75d35544687cc43ebe76aed23349003a7b69fb&amp;dn=Avril+Lavigne+-+Complicated+Live+at+JSTV+2012&amp;tr=udp%3A%2F%2Ftracker.openbittorrent.com%3A80&amp;tr=udp%3A%2F%2Fopen.demonii.com%3A1337&amp;tr=udp%3A%2F%2Ftracker.coppersurfer.tk%3A6969&amp;tr=udp%3A%2F%2Fexodus.desync.com%3A6969","seeders":0,"leechers":0,"uploader":"Mercury8215","files":1,"time":1328068101,"description":"Format                           : MPEG-PS\nFile size                        : 583 MiB\nDuration                         : 4mn 30s\nOverall bit rate mode            : Variable\nOverall bit rate                 : 18.1 Mbps\n\nVideo\nID                               : 224 (0xE0)\nFormat                           : MPEG Video\nFormat version                   : Version 2\nFormat profile                   : Main@High\nFormat settings, BVOP            : Yes\nFormat settings, Matrix          : Custom\nFormat settings, GOP             : M=3, N=12\nDuration                         : 4mn 29s\nBit rate mode                    : Variable\nBit rate                         : 17.4 Mbps\nMaximum bit rate                 : 17.5 Mbps\nWidth                            : 1 920 pixels\nHeight                           : 1 080 pixels\nDisplay aspect ratio             : 16:9\nFrame rate                       : 25.000 fps\nColor space                      : YUV\nChroma subsampling               : 4:2:0\nBit depth                        : 8 bits\nScan type                        : Interlaced\nScan order                       : Top Field First\nCompression mode                 : Lossy\nBits/(Pixel*Frame)               : 0.335\nStream size                      : 558 MiB (96%)\n\nAudio\nID                               : 192 (0xC0)\nFormat                           : MPEG Audio\nFormat version                   : Version 1\nFormat profile                   : Layer 2\nDuration                         : 4mn 30s\nBit rate mode                    : Constant\nBit rate                         : 384 Kbps\nChannel(s)                       : 2 channels\nSampling rate                    : 48.0 KHz\nCompression mode                 : Lossy\nDelay relative to video          : -40ms\nStream size                      : 12.4 MiB (2%)\n","torrent":{"xt":"urn:btih:cc75d35544687cc43ebe76aed23349003a7b69fb","amp;dn":"Avril+Lavigne+-+Complicated+Live+at+JSTV+2012","amp;tr":["udp%3A%2F%2Ftracker.openbittorrent.com%3A80","udp%3A%2F%2Fopen.demonii.com%3A1337","udp%3A%2F%2Ftracker.coppersurfer.tk%3A6969","udp%3A%2F%2Fexodus.desync.com%3A6969"],"infoHash":"cc75d35544687cc43ebe76aed23349003a7b69fb","infoHashBuffer":{"type":"Buffer","data":[204,117,211,85,68,104,124,196,62,190,118,174,210,51,73,0,58,123,105,251]},"announce":[],"urlList":[]}}